<svg width="1400" height="1400" viewBox="0 0 1400 1400" fill="none" xmlns="http://www.w3.org/2000/svg">
<path d="M977.461 1065.47C977.461 1071.39 972.664 1076.18 966.748 1076.18H819.131C730.738 1076.18 659.081 1004.1 659.081 915.703V915.703C659.081 827.785 730.353 756.085 818.271 756.085V756.085C906.189 756.085 977.461 827.356 977.461 915.274V1065.47Z" fill="#011936"/>
<path d="M481.257 320.158C614.38 320.158 722.298 428.076 722.298 561.199V731.078C655.511 763.462 609.426 831.885 609.426 911.059C609.426 979.652 643.97 1040.17 696.608 1076.18H592.763C496.618 1076.18 418.678 998.242 418.678 902.097V333.55C418.678 326.154 424.673 320.158 432.068 320.158H481.257Z" fill="#011936"/>
</svg>
