<svg width="1400" height="1400" viewBox="0 0 1400 1400" fill="none" xmlns="http://www.w3.org/2000/svg">
<path d="M977.423 1065.47C977.423 1071.39 972.627 1076.18 966.71 1076.18H819.093C730.7 1076.18 659.044 1004.09 659.044 915.701V915.701C659.044 827.783 730.315 756.083 818.233 756.083V756.083C906.152 756.083 977.423 827.355 977.423 915.273V1065.47Z" fill="white"/>
<path d="M481.257 320.157C614.38 320.157 722.298 428.074 722.298 561.198V731.077C655.511 763.46 609.426 831.883 609.426 911.057C609.426 979.649 643.97 1040.17 696.607 1076.18H592.763C496.618 1076.18 418.678 998.241 418.678 902.096V333.548C418.678 326.153 424.673 320.157 432.068 320.157H481.257Z" fill="white"/>
</svg>
