<svg width="2260" height="1000" viewBox="0 0 2260 1000" fill="none" xmlns="http://www.w3.org/2000/svg">
<path d="M747.191 812.146C747.191 817.162 743.125 821.228 738.109 821.228H613.132C538.106 821.228 477.285 759.959 477.285 684.933C477.285 610.401 537.706 549.535 612.238 549.535C686.771 549.535 747.191 609.956 747.191 684.488V812.146Z" fill="white"/>
<path d="M326.537 179.541C439.391 179.541 530.877 271.027 530.877 383.882V528.345C474.244 555.84 435.204 613.906 435.204 681.089C435.204 739.307 464.525 790.671 509.203 821.236H421.063C339.558 821.234 273.486 755.162 273.485 673.657V190.894C273.485 184.624 278.568 179.541 284.837 179.541H326.537Z" fill="white"/>
<path d="M830.698 719.108V308.217H886.811V666.616H1058.17V719.108H830.698Z" fill="white"/>
<path d="M1086.15 719.108V393.894H1139.85V719.108H1086.15ZM1113.3 351.056C1091.58 351.056 1075.9 336.575 1075.9 316.06C1075.9 295.546 1090.98 280.462 1113.3 280.462C1135.63 280.462 1150.11 295.546 1150.11 316.06C1150.11 336.575 1135.63 351.056 1113.3 351.056Z" fill="white"/>
<path d="M1180.29 719.108V393.894H1233.99C1233.99 416.822 1233.99 427.683 1233.38 449.404H1234.59C1253.9 410.789 1291.31 386.051 1338.97 386.051C1418.62 386.051 1459.65 442.164 1459.65 513.964V719.108H1405.95V527.238C1405.95 473.539 1376.98 434.923 1321.47 434.923C1264.76 434.923 1233.99 479.572 1233.99 531.462V719.108H1180.29Z" fill="white"/>
<path d="M1529.4 719.108V443.37H1475.7V393.894H1529.4C1529.4 320.887 1574.04 273.221 1641.62 273.221C1659.72 273.221 1674.81 275.032 1691.1 279.255L1688.08 326.318C1674.2 322.094 1660.93 320.887 1647.65 320.887C1607.23 320.887 1583.09 348.039 1583.09 393.894H1687.48V443.37H1583.09V719.108H1529.4Z" fill="white"/>
<path d="M1820.26 727.555C1732.17 727.555 1670.03 655.152 1670.03 557.406C1670.03 460.265 1733.38 386.654 1819.66 386.654C1872.15 386.654 1912.58 408.375 1934.3 450.611H1935.51C1934.3 430.096 1934.3 418.632 1934.3 393.894H1988V719.108H1934.3C1934.3 695.577 1934.3 685.923 1935.51 663.599H1934.3C1911.37 702.817 1867.93 727.555 1820.26 727.555ZM1829.92 678.683C1895.08 678.683 1937.32 629.207 1937.32 556.803C1937.32 485.003 1895.08 435.527 1829.92 435.527C1765.96 435.527 1723.73 488.623 1723.73 557.406C1723.73 626.19 1766.56 678.683 1829.92 678.683Z" fill="white"/>
</svg>
