<svg width="2260" height="1000" viewBox="0 0 2260 1000" fill="none" xmlns="http://www.w3.org/2000/svg">
<path d="M747.191 812.147C747.191 817.163 743.125 821.229 738.109 821.229H613.132C538.106 821.229 477.285 759.96 477.285 684.934C477.285 610.401 537.706 549.536 612.238 549.536C686.771 549.536 747.191 609.956 747.191 684.488V812.147Z" fill="#011936"/>
<path d="M326.537 179.542C439.391 179.542 530.877 271.028 530.877 383.883V528.345C474.244 555.841 435.204 613.906 435.204 681.09C435.204 739.308 464.525 790.672 509.203 821.236H421.063C339.558 821.235 273.486 755.163 273.485 673.658V190.894C273.485 184.625 278.568 179.542 284.837 179.542H326.537Z" fill="#011936"/>
<path d="M830.698 719.109V308.217H886.811V666.616H1058.17V719.109H830.698Z" fill="#011936"/>
<path d="M1086.15 719.109V393.895H1139.85V719.109H1086.15ZM1113.3 351.056C1091.58 351.056 1075.9 336.575 1075.9 316.061C1075.9 295.546 1090.98 280.462 1113.3 280.462C1135.63 280.462 1150.11 295.546 1150.11 316.061C1150.11 336.575 1135.63 351.056 1113.3 351.056Z" fill="#011936"/>
<path d="M1180.29 719.109V393.895H1233.99C1233.99 416.823 1233.99 427.683 1233.38 449.405H1234.59C1253.9 410.789 1291.31 386.051 1338.97 386.051C1418.62 386.051 1459.65 442.164 1459.65 513.965V719.109H1405.95V527.239C1405.95 473.539 1376.98 434.924 1321.47 434.924C1264.76 434.924 1233.99 479.573 1233.99 531.462V719.109H1180.29Z" fill="#011936"/>
<path d="M1529.4 719.109V443.371H1475.7V393.895H1529.4C1529.4 320.888 1574.04 273.222 1641.62 273.222C1659.72 273.222 1674.81 275.032 1691.1 279.256L1688.08 326.318C1674.2 322.094 1660.93 320.888 1647.65 320.888C1607.23 320.888 1583.09 348.039 1583.09 393.895H1687.48V443.371H1583.09V719.109H1529.4Z" fill="#011936"/>
<path d="M1820.26 727.556C1732.17 727.556 1670.03 655.152 1670.03 557.407C1670.03 460.265 1733.38 386.655 1819.66 386.655C1872.15 386.655 1912.58 408.376 1934.3 450.611H1935.51C1934.3 430.097 1934.3 418.633 1934.3 393.895H1988V719.109H1934.3C1934.3 695.578 1934.3 685.924 1935.51 663.599H1934.3C1911.37 702.818 1867.93 727.556 1820.26 727.556ZM1829.92 678.683C1895.08 678.683 1937.32 629.207 1937.32 556.803C1937.32 485.003 1895.08 435.527 1829.92 435.527C1765.96 435.527 1723.73 488.623 1723.73 557.407C1723.73 626.19 1766.56 678.683 1829.92 678.683Z" fill="#011936"/>
</svg>
