<svg width="1501" height="1535" viewBox="0 0 1501 1535" fill="none" xmlns="http://www.w3.org/2000/svg">
<g clip-path="url(#clip0_7773_1410)">
<path d="M958.333 796.494C958.333 800.908 954.755 804.487 950.341 804.487H840.357C774.332 804.487 720.808 750.568 720.808 684.543C720.808 618.952 773.98 565.388 839.571 565.388C905.161 565.388 958.333 618.56 958.333 684.151V796.494Z" fill="#011936"/>
<path d="M588.171 239.762C687.486 239.762 767.996 320.272 767.996 419.587V546.714C718.153 570.909 683.792 622.01 683.792 681.137C683.793 732.371 709.596 777.572 748.913 804.469H671.36C599.632 804.469 541.484 746.326 541.483 674.598V249.753C541.483 244.235 545.957 239.762 551.474 239.762H588.171Z" fill="#011936"/>
<path d="M240.678 1285.99V924.389H290.059V1239.79H440.857V1285.99H240.678Z" fill="#011936"/>
<path d="M465.486 1285.99V999.788H512.743V1285.99H465.486ZM489.38 962.088C470.265 962.088 456.459 949.345 456.459 931.292C456.459 913.238 469.734 899.964 489.38 899.964C509.026 899.964 521.77 913.238 521.77 931.292C521.77 949.345 509.026 962.088 489.38 962.088Z" fill="#011936"/>
<path d="M548.327 1285.99V999.788H595.584C595.584 1019.97 595.584 1029.52 595.053 1048.64H596.115C613.106 1014.66 646.027 992.885 687.974 992.885C758.064 992.885 794.17 1042.27 794.17 1105.45V1285.99H746.913V1117.13C746.913 1069.88 721.426 1035.89 672.576 1035.89C622.664 1035.89 595.584 1075.19 595.584 1120.85V1285.99H548.327Z" fill="#011936"/>
<path d="M855.552 1285.99V1043.33H808.295V999.788H855.552C855.552 935.539 894.845 893.592 954.315 893.592C970.244 893.592 983.518 895.185 997.855 898.902L995.2 940.318C982.987 936.601 971.306 935.539 959.624 935.539C924.049 935.539 902.81 959.433 902.81 999.788H994.669V1043.33H902.81V1285.99H855.552Z" fill="#011936"/>
<path d="M1111.53 1293.42C1034 1293.42 979.312 1229.7 979.312 1143.68C979.312 1058.2 1035.06 993.416 1111 993.416C1157.19 993.416 1192.77 1012.53 1211.88 1049.7H1212.94C1211.88 1031.65 1211.88 1021.56 1211.88 999.788H1259.14V1285.99H1211.88C1211.88 1265.28 1211.88 1256.78 1212.94 1237.14H1211.88C1191.7 1271.65 1153.47 1293.42 1111.53 1293.42ZM1120.02 1250.41C1177.37 1250.41 1214.54 1206.87 1214.54 1143.15C1214.54 1079.97 1177.37 1036.43 1120.02 1036.43C1063.74 1036.43 1026.57 1083.15 1026.57 1143.68C1026.57 1204.21 1064.27 1250.41 1120.02 1250.41Z" fill="#011936"/>
</g>
<defs>
<clipPath id="clip0_7773_1410">
<rect width="1500.09" height="1535" fill="white"/>
</clipPath>
</defs>
</svg>
