<svg width="1501" height="1535" viewBox="0 0 1501 1535" fill="none" xmlns="http://www.w3.org/2000/svg">
<g clip-path="url(#clip0_7773_1420)">
<path d="M958.333 796.493C958.333 800.907 954.755 804.485 950.341 804.485H840.357C774.332 804.485 720.808 750.567 720.808 684.542C720.808 618.951 773.98 565.387 839.571 565.387C905.161 565.387 958.333 618.559 958.333 684.15V796.493Z" fill="white"/>
<path d="M588.171 239.76C687.486 239.761 767.996 320.27 767.996 419.586V546.713C718.153 570.908 683.792 622.009 683.792 681.135C683.793 732.369 709.596 777.57 748.913 804.468H671.36C599.632 804.468 541.484 746.324 541.483 674.597V249.751C541.483 244.234 545.957 239.76 551.474 239.76H588.171Z" fill="white"/>
<path d="M240.678 1285.98V924.387H290.059V1239.79H440.857V1285.98H240.678Z" fill="white"/>
<path d="M465.486 1285.98V999.786H512.743V1285.98H465.486ZM489.38 962.087C470.265 962.087 456.459 949.343 456.459 931.29C456.459 913.237 469.734 899.962 489.38 899.962C509.026 899.962 521.77 913.237 521.77 931.29C521.77 949.343 509.026 962.087 489.38 962.087Z" fill="white"/>
<path d="M548.327 1285.98V999.786H595.584C595.584 1019.96 595.584 1029.52 595.053 1048.64H596.115C613.106 1014.65 646.027 992.884 687.974 992.884C758.064 992.884 794.17 1042.26 794.17 1105.45V1285.98H746.913V1117.13C746.913 1069.88 721.426 1035.89 672.576 1035.89C622.664 1035.89 595.584 1075.19 595.584 1120.85V1285.98H548.327Z" fill="white"/>
<path d="M855.552 1285.98V1043.33H808.295V999.786H855.552C855.552 935.538 894.845 893.591 954.315 893.591C970.244 893.591 983.518 895.183 997.855 898.9L995.2 940.317C982.987 936.6 971.306 935.538 959.624 935.538C924.049 935.538 902.81 959.432 902.81 999.786H994.669V1043.33H902.81V1285.98H855.552Z" fill="white"/>
<path d="M1111.53 1293.42C1034 1293.42 979.312 1229.7 979.312 1143.68C979.312 1058.19 1035.06 993.415 1111 993.415C1157.19 993.415 1192.77 1012.53 1211.88 1049.7H1212.94C1211.88 1031.65 1211.88 1021.56 1211.88 999.786H1259.14V1285.98H1211.88C1211.88 1265.28 1211.88 1256.78 1212.94 1237.13H1211.88C1191.7 1271.65 1153.47 1293.42 1111.53 1293.42ZM1120.02 1250.41C1177.37 1250.41 1214.54 1206.87 1214.54 1143.15C1214.54 1079.96 1177.37 1036.42 1120.02 1036.42C1063.74 1036.42 1026.57 1083.15 1026.57 1143.68C1026.57 1204.21 1064.27 1250.41 1120.02 1250.41Z" fill="white"/>
</g>
<defs>
<clipPath id="clip0_7773_1420">
<rect width="1500.09" height="1535" fill="white"/>
</clipPath>
</defs>
</svg>
