<svg width="1705" height="1000" viewBox="0 0 1705 1000" fill="none" xmlns="http://www.w3.org/2000/svg">
<path d="M273.475 719.111V308.219H329.588V666.618H500.944V719.111H273.475Z" fill="white"/>
<path d="M528.93 719.111V393.897H582.629V719.111H528.93ZM556.081 351.058C534.36 351.058 518.672 336.577 518.672 316.063C518.672 295.548 533.757 280.464 556.081 280.464C578.406 280.464 592.886 295.548 592.886 316.063C592.886 336.577 578.406 351.058 556.081 351.058Z" fill="white"/>
<path d="M623.064 719.111V393.897H676.764C676.764 416.825 676.764 427.685 676.16 449.407H677.367C696.675 410.791 734.083 386.053 781.749 386.053C861.393 386.053 902.422 442.166 902.422 513.967V719.111H848.723V527.241C848.723 473.541 819.761 434.926 764.251 434.926C707.535 434.926 676.764 479.575 676.764 531.464V719.111H623.064Z" fill="white"/>
<path d="M972.172 719.111V443.373H918.472V393.897H972.172C972.172 320.89 1016.82 273.224 1084.4 273.224C1102.5 273.224 1117.58 275.034 1133.87 279.258L1130.86 326.32C1116.98 322.096 1103.71 320.89 1090.43 320.89C1050.01 320.89 1025.87 348.041 1025.87 393.897H1130.25V443.373H1025.87V719.111H972.172Z" fill="white"/>
<path d="M1263.04 727.558C1174.95 727.558 1112.8 655.154 1112.8 557.409C1112.8 460.267 1176.16 386.657 1262.44 386.657C1314.93 386.657 1355.36 408.378 1377.08 450.613H1378.28C1377.08 430.099 1377.08 418.635 1377.08 393.897H1430.78V719.111H1377.08C1377.08 695.58 1377.08 685.926 1378.28 663.601H1377.08C1354.15 702.82 1310.71 727.558 1263.04 727.558ZM1272.69 678.685C1337.86 678.685 1380.09 629.209 1380.09 556.806C1380.09 485.005 1337.86 435.529 1272.69 435.529C1208.74 435.529 1166.5 488.625 1166.5 557.409C1166.5 626.193 1209.34 678.685 1272.69 678.685Z" fill="white"/>
</svg>
