<svg width="1705" height="1000" viewBox="0 0 1705 1000" fill="none" xmlns="http://www.w3.org/2000/svg">
<path d="M273.475 719.109V308.218H329.588V666.616H500.944V719.109H273.475Z" fill="#011936"/>
<path d="M528.93 719.109V393.895H582.629V719.109H528.93ZM556.081 351.057C534.36 351.057 518.672 336.576 518.672 316.061C518.672 295.547 533.757 280.463 556.081 280.463C578.406 280.463 592.886 295.547 592.886 316.061C592.886 336.576 578.406 351.057 556.081 351.057Z" fill="#011936"/>
<path d="M623.064 719.109V393.895H676.764C676.764 416.823 676.764 427.684 676.16 449.405H677.367C696.675 410.79 734.083 386.052 781.749 386.052C861.393 386.052 902.422 442.165 902.422 513.965V719.109H848.723V527.239C848.723 473.54 819.761 434.924 764.251 434.924C707.535 434.924 676.764 479.573 676.764 531.463V719.109H623.064Z" fill="#011936"/>
<path d="M972.172 719.109V443.371H918.472V393.895H972.172C972.172 320.888 1016.82 273.222 1084.4 273.222C1102.5 273.222 1117.58 275.032 1133.87 279.256L1130.86 326.319C1116.98 322.095 1103.71 320.888 1090.43 320.888C1050.01 320.888 1025.87 348.04 1025.87 393.895H1130.25V443.371H1025.87V719.109H972.172Z" fill="#011936"/>
<path d="M1263.04 727.556C1174.95 727.556 1112.8 655.153 1112.8 557.407C1112.8 460.266 1176.16 386.655 1262.44 386.655C1314.93 386.655 1355.36 408.376 1377.08 450.612H1378.28C1377.08 430.097 1377.08 418.633 1377.08 393.895H1430.78V719.109H1377.08C1377.08 695.578 1377.08 685.924 1378.28 663.6H1377.08C1354.15 702.818 1310.71 727.556 1263.04 727.556ZM1272.69 678.684C1337.86 678.684 1380.09 629.208 1380.09 556.804C1380.09 485.004 1337.86 435.528 1272.69 435.528C1208.74 435.528 1166.5 488.624 1166.5 557.407C1166.5 626.191 1209.34 678.684 1272.69 678.684Z" fill="#011936"/>
</svg>
